<?xml version="1.0" encoding="UTF-8" standalone="no"?>
<!-- Created with Inkscape (http://www.inkscape.org/) -->

<svg
   xmlns:dc="http://purl.org/dc/elements/1.1/"
   xmlns:cc="http://creativecommons.org/ns#"
   xmlns:rdf="http://www.w3.org/1999/02/22-rdf-syntax-ns#"
   xmlns:svg="http://www.w3.org/2000/svg"
   xmlns="http://www.w3.org/2000/svg"
   xmlns:sodipodi="http://sodipodi.sourceforge.net/DTD/sodipodi-0.dtd"
   xmlns:inkscape="http://www.inkscape.org/namespaces/inkscape"
   width="142.52377mm"
   height="71.509827mm"
   viewBox="0 0 505.0055 253.38127"
   id="svg2"
   version="1.1"
   inkscape:version="0.91 r13725"
   sodipodi:docname="logo_plantilla.svg">
  <defs
     id="defs4" />
  <sodipodi:namedview
     id="base"
     pagecolor="#ffffff"
     bordercolor="#666666"
     borderopacity="1.0"
     inkscape:pageopacity="0.0"
     inkscape:pageshadow="2"
     inkscape:zoom="1.4"
     inkscape:cx="69.239644"
     inkscape:cy="-1.2204532"
     inkscape:document-units="px"
     inkscape:current-layer="layer1"
     showgrid="true"
     fit-margin-top="0"
     fit-margin-left="0"
     fit-margin-right="0"
     fit-margin-bottom="0"
     inkscape:window-width="1920"
     inkscape:window-height="1017"
     inkscape:window-x="-8"
     inkscape:window-y="-8"
     inkscape:window-maximized="1">
    <inkscape:grid
       type="xygrid"
       id="grid3391"
       originx="-131.93017"
       originy="-766.88817" />
  </sodipodi:namedview>
  <metadata
     id="metadata7">
    <rdf:RDF>
      <cc:Work
         rdf:about="">
        <dc:format>image/svg+xml</dc:format>
        <dc:type
           rdf:resource="http://purl.org/dc/dcmitype/StillImage" />
        <dc:title></dc:title>
      </cc:Work>
    </rdf:RDF>
  </metadata>
  <g
     inkscape:label="Capa 1"
     inkscape:groupmode="layer"
     id="layer1"
     transform="translate(-131.93018,-32.092753)">
    <path
       d="m 636.89613,285.4728 -97.98197,0 c -0.004,-106.63692 -53.30744,-55.95258 -53.30744,-149.3993 0,-33.73236 22.08416,-52.038789 50.43921,-52.038789 41.89701,0 71.05491,40.002019 31.38016,114.802799 -13.03452,24.57486 13.87904,30.41305 42.79303,37.08354 28.9005,6.66556 26.67701,21.90396 26.67701,49.55175 z M 158.64672,235.92227 c 28.91397,-6.66926 55.82756,-12.50868 42.79303,-37.08354 C 161.765,124.03796 190.92291,84.035936 232.81993,84.035936 c 28.35626,0 50.43919,18.307654 50.43919,52.038784 0,93.4455 -53.30253,42.76239 -53.30742,149.39931 l -97.982,0 c 0,-27.64902 -2.22347,-42.88742 26.67702,-49.55176 z m 319.0834,-12.77712 C 441.36241,214.75374 407.50871,207.4091 423.9042,176.49962 473.81021,82.40938 437.13238,32.092753 384.43292,32.092753 c -53.73889,0 -89.5121,52.247163 -39.47005,144.406867 16.8858,31.09824 -18.24269,38.43552 -53.82837,46.64553 -36.35299,8.38406 -33.55708,27.55096 -33.55708,62.32888 l 253.70978,0 c 0,-34.77914 2.79715,-53.94482 -33.55708,-62.32888 z"
       id="user-14-icon"
       inkscape:connector-curvature="0" />
    <path
       d="m 392.8941,135.92966 -17.01073,0 c -1.19221,0 -2.15874,1.02861 -2.15874,2.29739 0,1.26903 0.96653,2.29765 2.15874,2.29765 l 17.01073,0 c 1.19243,0 2.15896,-1.02862 2.15896,-2.29765 0,-1.26878 -0.96653,-2.29739 -2.15896,-2.29739 z m -0.38826,7.64916 -16.23375,0 c -1.19221,0 -2.15874,1.0286 -2.15874,2.29739 0,1.26878 0.96653,2.29714 2.15874,2.29714 l 16.23397,0 c 1.19198,0 2.15852,-1.02836 2.15852,-2.29714 0,-1.26879 -0.96654,-2.29739 -2.15874,-2.29739 z m -16.12278,7.54231 c 4.20301,4.13489 4.6356,4.96552 6.31343,4.96552 l 3.23153,0 c 1.6396,0 2.04403,-0.76971 6.46638,-4.96552 l -16.01134,0 z m 32.58056,-55.046091 c 0,15.555211 -12.56985,24.272181 -12.56985,36.547591 l -24.00985,0 c 0,-12.27541 -12.57007,-20.99238 -12.57007,-36.547591 0,-33.43081 49.14977,-33.464764 49.14977,0 z m -21.46475,-31.586553 -5.87941,0 0,-11.262775 5.87941,0 0,11.262775 z m 20.18972,-5.278362 -5.1808,-2.958503 -5.174,10.261875 5.18081,2.958503 5.17399,-10.261875 z m 15.03566,15.497044 -3.42484,-5.085871 -9.40751,7.174803 3.4251,5.085871 9.40725,-7.174803 z m 1.03832,39.471392 -10.58398,-4.56308 -2.20755,5.79916 10.584,4.56333 2.20753,-5.79941 z m 3.52056,-22.116596 -11.9939,0 0,6.257043 11.9939,0 0,-6.257043 z m -55.81344,-25.548468 -5.17398,-10.261875 -5.1808,2.958503 5.174,10.261875 5.18078,-2.958503 z m -12.55833,10.282604 -9.4075,-7.174803 -3.42484,5.085871 9.40725,7.174803 3.42509,-5.085871 z m -0.97732,38.07128 -2.41093,-5.70654 -10.584,5.06391 2.41095,5.70654 10.58398,-5.06391 z m -4.41977,-22.805416 -11.9939,0 0,6.257043 11.9939,0 0,-6.257043 z"
       id="light-bulb-17-icon"
       inkscape:connector-curvature="0"
       style="fill:#ffe6d5" />
    <path
       d="m 537.20059,181.42504 c -4.28164,0 -7.75428,-3.47264 -7.75428,-7.75585 0,-4.28095 3.47264,-7.75256 7.75428,-7.75256 4.28268,0 7.75412,3.47144 7.75412,7.75256 0,4.28321 -3.47144,7.75585 -7.75412,7.75585 z m 6.09649,-22.92017 0,1.39484 c 0,0 -11.62592,0 -12.78243,0 l 0,-1.39484 c 0,-3.94723 0.57584,-9.01068 5.15851,-13.41286 4.58283,-4.40271 10.30978,-8.03963 10.30978,-13.53943 0,-6.0803 -4.2195,-9.29636 -9.53987,-9.29636 -8.8655,0 -9.44463,9.19441 -9.66315,11.21883 l -12.43268,0 c 0.33114,-9.58738 4.38359,-22.99749 22.17005,-22.99749 15.41438,0 22.34433,10.32337 22.34433,20.00409 0,15.40869 -15.56454,18.08524 -15.56454,28.02322 z"
       id="help-icon"
       inkscape:connector-curvature="0"
       style="fill:#ffe6d5" />
    <path
       d="m 232.90809,111.57923 c 4.28165,0 7.75429,3.47264 7.75429,7.75584 0,4.28096 -3.47264,7.75257 -7.75429,7.75257 -4.28267,0 -7.75411,-3.47144 -7.75411,-7.75257 0,-4.2832 3.47144,-7.75584 7.75411,-7.75584 z m -6.09649,22.92018 0,-1.39485 c 0,0 11.62592,0 12.78245,0 l 0,1.39485 c 0,3.94723 -0.57586,9.01067 -5.15852,13.41286 -4.58282,4.40271 -10.30977,8.03963 -10.30977,13.53942 0,6.0803 4.21948,9.29636 9.53985,9.29636 8.86552,0 9.44463,-9.19441 9.66315,-11.21882 l 12.4327,0 c -0.33116,9.58737 -4.3836,22.99748 -22.17006,22.99748 -15.41437,0 -22.34433,-10.32338 -22.34433,-20.0041 0,-15.40867 15.56453,-18.08522 15.56453,-28.0232 z"
       id="help-icon-1"
       inkscape:connector-curvature="0"
       style="fill:#e3dbdb" />
  </g>
</svg>
